<svg id="Layer_1" data-name="Layer 1" xmlns="http://www.w3.org/2000/svg" viewBox="0 0 499.61 470"><defs><style>.cls-1{fill:#d9d9d9;}</style></defs><title>europe</title><path class="cls-1" d="M393.49,15.58a11.81,11.81,0,0,0-3,2.37,8.89,8.89,0,0,1-1.6,1.6,2.83,2.83,0,0,1-.5-1.36c-.28-1.56-.71-2-2.35-2.3-1.79-.39-2.5.47-2.5,3.12,0,1.86-.07,2.1-.82,2.1a5.86,5.86,0,0,0-2.18.81,3.27,3.27,0,0,1-1.49.66,3.15,3.15,0,0,1,.2-1.51c.55-1.83.51-2.53-.23-3.23-1.06-1.09-2.58-.74-5.2,1.17a9.16,9.16,0,0,1-4.72,2.1,13.18,13.18,0,0,0-3.79,1.12,14.88,14.88,0,0,0-5.82,6.58c-1.21,3.23-2.57,4.2-5,3.54-1.29-.35-1.56-.27-4.22,1.52-3.75,2.53-4.88,3.69-5.47,5.72a7.66,7.66,0,0,1-2.69,3.54c-2.11,1.82-4.45,4.39-9,9.88a35.48,35.48,0,0,1-4.6,4.43,9.87,9.87,0,0,0-3.21,3.35,38.51,38.51,0,0,1-5,6A39.51,39.51,0,0,0,315.21,73c-.78,1.78-.93,3.61-.35,4.55.27.42-.12.81-1.87,1.75-3.09,1.63-4.14,3.27-3.87,6a8.91,8.91,0,0,0,.82,3c.67,1,.47,1.28-2.11,2.84-2.26,1.32-3.24,2.6-3,3.89.15,1.09,0,1.28-3.71,3.42-6.83,4-10.58,7.66-11.09,10.74-.43,2.76.16,2.8,3.59.27,5.43-4,7.69-4.79,7.93-2.65.08.82-.31,1.4-1.91,2.84-3.44,3.08-5.43,3.74-9.1,3-1.95-.39-2.5-.35-4.84.39-5.55,1.79-12.57,5.49-23.82,12.57-5.93,3.73-6.75,4.39-6.52,5.09a11.46,11.46,0,0,1,.43,4.71,9,9,0,0,1-1.95,2.84,6.71,6.71,0,0,0-2.11,4.36c-.23,1.4-.66,3.69-.9,5.09-.66,3.5-.47,3.86,2.07,3.86,2.7,0,3.83.35,3.83,1.08,0,.35-1.72,2.22-3.79,4.21-3.4,3.19-3.75,3.61-3.24,4.2a5.46,5.46,0,0,0,1.52,1.2c1,.51,1.64.39,4.49-.77.67-.32.75-.2.51,1.2s-.82,2.22-3.67,4.44c-1.25,1-1.44,1.67-1.33,4.94.08,1.94,1.64,3.42,4.65,4.39a24.21,24.21,0,0,1,3.94,1.64c3.48,2,10.62-1.33,22.06-10.2,3.94-3.07,4.34-3.5,5.74-6.34a19.72,19.72,0,0,1,1.72-3,6.84,6.84,0,0,1,1,1.71,10.8,10.8,0,0,1,.79,4.63,40,40,0,0,0,2,11.75,28.24,28.24,0,0,0,2.5,4.71c1.44,2.14,1.67,2.68,1.36,3.5-.66,1.75-.43,2.45,1.17,3.5,1,.66,1.56,1.32,1.56,1.83,0,1.24,1.72,3.85,3.64,5.44C305,197,305,197,305.26,200c.5,6.11,1.05,11.16,1.32,11.44a12.93,12.93,0,0,0,3.6-.43c3.78-.74,3.51-.43,4.29-5.68a20.26,20.26,0,0,1,1-4.09c.46-.89.7-1,3.59-1,2.5,0,3.39-.19,5-1,4.95-2.57,10.69-11.05,10.73-15.8,0-.77-.27-3.65-.66-6.38-1-7.58-.74-8.09,6.56-12,4.41-2.37,6.24-3.69,6.52-4.74A43.68,43.68,0,0,1,349.1,156c2.15-4.44,2.15-4.83,0-5.37-2.93-.74-2.89-.7-1.37-2.26a6.16,6.16,0,0,0,1.45-1.94c0-.74-1.33-1.21-5.35-1.87-5.51-.86-5.39-.82-5.9-1.91-.62-1.36-.58-3.66.12-7.31a35.27,35.27,0,0,0,.59-4.79c0-1.59.39-2.33,4.37-8.05,8.78-12.61,15.58-21.59,19.25-25.44,1.21-1.25,1.79-1.6,2.46-1.4,1.09.27,1.09.27-.32-4.17a37.46,37.46,0,0,1-1.17-4.35c0-.86.67-1.21,4.49-2.26,4.34-1.21,4.26-1.13,3.13-2.8-1.53-2.26-1.33-2.76,1.91-4.94l2.89-2,3.47,1.56c1.88.89,4.18,1.94,5.12,2.37,1.64.78,4,2.76,4,3.42,0,.2-.55.43-1.21.59-1.64.35-4,2.57-5.39,5a38.63,38.63,0,0,0-3.4,9.53c-.19,1.28-.43,1.55-1.24,1.67-1.45.16-2,1.25-1.1,2.22.67.74.67.78-.47,1.36a23.27,23.27,0,0,0-3.86,3.58,26.06,26.06,0,0,1-4.3,3.93c-1.4.82-1.68,1.17-1.68,2.14a8.83,8.83,0,0,1-1,3.11c-1,1.91-1,2-.43,5.29.31,1.87.74,4.94,1,6.89a89.44,89.44,0,0,0,1.88,10.54c.94,3.07,1.44,3.54,6.75,6.19a63.59,63.59,0,0,1,5.66,3,6.35,6.35,0,0,0,3.17.28c3.78-.24,6.56-1.64,14.68-7.4,7.65-5.44,11-7.23,14.13-7.66,2.54-.35,4.14-1.52,9.8-7.28A45.1,45.1,0,0,0,430.46,113c2-4,2.38-6.69,1.14-9.11a12.56,12.56,0,0,0-8.09-6.49L421.87,97l.59-1.4a5.25,5.25,0,0,0,.35-2.88c-.19-1.28-.08-1.75,1-3.19L425,87.83l-3.4-.28a36.76,36.76,0,0,1-3.9-.42,3.57,3.57,0,0,1-.79-2c-.23-1.67-.39-1.9-1.67-2.41A6.09,6.09,0,0,1,413,80.94l-.82-1.17,1.76-5,1.8-5-4.3-4.56c-2.34-2.52-4.57-5-4.92-5.56-.82-1.2-.82-2.49,0-5.91l.67-2.76-2.74-2.61c-2-1.87-3.2-2.72-4.53-3.07l-1.79-.51-1.25-5.1c-.67-2.84-1.25-5.33-1.29-5.52s.78-.58,1.83-.86c1.57-.39,2.46-1,4.61-3.11l2.7-2.64-.86-.71a4.87,4.87,0,0,0-2.85-.66,6.14,6.14,0,0,1-2.81-.54c-.71-.55-.71-.58.23-.93,1.41-.55,2-1.41,1.87-2.65-.11-1,0-1.09,1.84-1.6,3.24-.89,3.12-.81,2.19-1.82A16,16,0,0,0,397,15,6.54,6.54,0,0,0,393.49,15.58Z" transform="translate(0 -15)"/><path class="cls-1" d="M119.11,45.85a4.83,4.83,0,0,0-.24,1.36c0,.93-.31.93-1.4-.08l-.9-.81L114,47.52c-3.55,1.67-7.06,3.81-7.34,4.51-.58,1.56,1,3,4.65,4.09,2.26.7,2.38,1,.82,2.14a3,3,0,0,1-3,.78c-2.46-.43-6-.31-7,.19a2.9,2.9,0,0,0-1.32,3.23c.19,1,.31,1,2.42,1,3.08,0,4.72,1.05,4.72,3a3.42,3.42,0,0,1-1.37,2.76c-1.32,1.32-1.48,1.36-3.47,1.13-2.46-.27-2.77,0-3,2.53l-.19,1.83L102,75c3.24.39,5.62,1.91,8.94,5.68s5.77,5.48,8.12,5.76a23.64,23.64,0,0,0,5.85-.9c5.23-1.24,9.06-1.63,10.74-1,1.05.39,1.48.31,2.85-.39.9-.43,4.33-1.55,7.69-2.53,6.91-1.94,9.41-3,11.4-4.74A7.76,7.76,0,0,0,159.28,67c-1.17-2.33-1.25-3.54-.2-4.2s1-2.29,0-3.58c-.74-.93-.78-1-1.91-.35l-1.13.66-.23-1.44A4.1,4.1,0,0,0,153,54.72c-1.52-.39-2.11.08-2.57,2s-.78,2.14-1.33.9c-.7-1.48-1.56-1.71-3.2-.9-.82.43-1.6.82-1.76.9s-.31-.16-.31-.47c0-1.28-2.31-2.18-5.47-2.14-3.67,0-4.76.35-5.27,1.44s-1.05,1.09-.58-.15.5-2.77,0-3.08a7.24,7.24,0,0,0-2.46,0c-2,.27-2.07.31-3.2,2.45s-1.29,2.22-2.66,2.34l-1.48.11L124,55.77c1.79-3.62,1.4-7.24-1.06-9.38C121.45,45.11,119.5,44.84,119.11,45.85Z" transform="translate(0 -15)"/><path class="cls-1" d="M406.14,147.58a65.51,65.51,0,0,0-12.57,3.08,32.72,32.72,0,0,0-5.27,2.88c-3.79,2.56-4,3.42-1.52,5.79,1.64,1.56,1.67,1.64,1.52,3.89-.2,3.74.94,4.32,4.64,2.42,1.29-.67,1.33-.67,2,.23s.62,1,.07,2c-.7,1.4-.74,5.25-.11,9,.58,3.15.11,4.63-1.57,5.33-2.38,1-4.84-.27-7.61-3.93l-1.79-2.3h-2.7a13.58,13.58,0,0,1-3.67-.38c-.86-.32-1.13-.2-2.34,1.24-2.58,3-7.38,13.38-7.11,15.37a12.07,12.07,0,0,0,1,2.88,31.22,31.22,0,0,1,1.44,5.83c.55,3.62.75,4.17,1.8,5.18,1.21,1.09,1.25,1.09,4.8.85,4.1-.31,4.1-.31,4.1,2.73a8.72,8.72,0,0,1-1,3.69,5.93,5.93,0,0,0-.75,4.4l.24,2.45-1.56.39c-1.53.39-1.57.39-2.19-.94l-.66-1.36-3.4.24a83.46,83.46,0,0,0-13.24,1.86c-3.74.9-4,.78-7.88-2.41-1.52-1.24-2.73-1.94-3.4-1.94-1.76,0-8,2.29-12.06,4.43-2.15,1.17-5.94,3.15-8.4,4.48s-5.35,2.68-6.36,3.07a15.22,15.22,0,0,0-4.22,2.72c-2.1,1.91-2.3,2-2.3,1.17,0-1.44-1-2.45-3.2-3.42-1.13-.47-2.11-.94-2.19-1s.31-.54.86-1.09a3.51,3.51,0,0,0,1-1.9c0-1.44-2-5.06-3.32-5.84-1.53-.93-1.88-.89-3.28.31s-1.56,2.57-.24,3.27,1.25.93-.31,2.1c-3,2.26-7.73,3.39-10.31,2.45-.78-.27-1.05-.08-2.1,1.6-1.17,1.9-1.21,1.9-2.62,1.59a15.18,15.18,0,0,0-1.72-.35c-.19,0-.31-.62-.31-1.36,0-1.32,0-1.32-2.62-2.1-1.48-.43-3.59-1-4.68-1.21a6.23,6.23,0,0,1-2.07-.7,6.9,6.9,0,0,1,.59-1.24,6.59,6.59,0,0,0,.58-2.45c0-1.44-.08-1.52-2.42-2.61a14.5,14.5,0,0,0-3-1.17c-.31,0,.59-1.2,2-2.68a40.29,40.29,0,0,0,6.83-10.66c.58-1.6.9-1.83,3.86-3.31,4.3-2.14,4-2.95-1.4-4a8.48,8.48,0,0,1-2.46-.73c-.2-.2.15-1.72.9-3.62,1.17-3,2-8.09,1.4-8.09-.94,0-4.29,2.17-4.84,3.15s-.86,1.13-2.62,1.13c-1,0-3.08.11-4.49.23l-2.53.27-1.95,2.69a19.75,19.75,0,0,0-2.07,3.22c-.24,1,1,1.09,2.38.24a8.29,8.29,0,0,1,6.32-.82c1,.27,1.76.62,1.76.78,0,.54-3.55,2-5.43,2.22a13.52,13.52,0,0,1-4.29-.43,8.18,8.18,0,0,0-2.7-.43,80.88,80.88,0,0,0-.23,8.09c0,7.51,0,7.94.86,9.26s.86,1.95.86,4.94a15.13,15.13,0,0,0,2.5,9.15c.82,1.2.85,1.43.39,2.56-.63,1.48-2.19,2.34-3,1.64s-1.4-.2-1.4,1.28a9.72,9.72,0,0,1-.43,2.53c-.39,1-.59,1.21-1.92,1.21s-1.71-.24-3.47-2.22l-1.95-2.18L253.33,234a17.42,17.42,0,0,0-2.61,2.34c-.32.5-.67.54-1.8.31-3-.74-10.11.66-12.65,2.45-1.21.85-1.21.7-.43,5.56a2.94,2.94,0,0,1-.62,2.65c-.79,1-1.1,1.09-2.89,1l-2-.12-.39-3.46-.4-3.42-1.28,2.06c-.71,1.17-2.15,3.58-3.24,5.41-2.46,4.12-3.67,5.4-7.58,8-3.36,2.18-5.27,3.81-5.27,4.48,0,.19-.27.38-.58.38A80.59,80.59,0,0,0,201,265.85a1.08,1.08,0,0,1-1.22,0c-.85-.47-7.18,0-8.78.62-1.17.47-1.76,1.48-3.44,5.76-1.83,4.75-3.39,6.27-7.69,7.55a3.59,3.59,0,0,1-2.85,0c-1.64-.66-2.46-.2-4.68,2.72-2,2.65-2.85,2.88-5.39,1.6-1.87-1-2.54-2.1-2.61-4.52-.08-1.05-.12-2-.16-2a17,17,0,0,0-2,.51c-1.84.54-2,.54-3.44-.28-1.75-1-2.38-.85-3.78.94a6.45,6.45,0,0,0-.28,6.65c.67,1.13.7,1.56.39,3.27a7.22,7.22,0,0,1-1.17,2.8c-.74.78-1.05.82-4.57.58-2.07-.15-4-.31-4.33-.42a5.45,5.45,0,0,1-1.64-1.91l-1-1.75-9.3.19-9.29.2-1.09,1.24a4.71,4.71,0,0,0-1.06,1.75c0,.28.75.86,1.64,1.33l1.68.85-1.71.74a23.31,23.31,0,0,1-2.62.94c-.51.11-.94.38-.94.62,0,.81,1.21,2.6,2.7,3.93s1.64,1.44,3.9,1.2a5.57,5.57,0,0,1,4.33.86c2.5,1.36,4.69,4,6.52,7.78,1.06,2.22,1.64,2.92,2.78,3.5.78.43,1.52.78,1.6.82a5,5,0,0,1-.9,1.67,9.7,9.7,0,0,0-1,1.79,26.13,26.13,0,0,0,1.17,2.65c.9,1.82,1.33,3.46,1.8,7A69.24,69.24,0,0,0,143.7,334c.55,2.18.55,2.22-.47,3.7a106.62,106.62,0,0,0-6.44,13.54c-1.6,4-1.91,4.47-4.84,7.39a78.27,78.27,0,0,1-9.8,8.09A7.9,7.9,0,0,1,119,366c-1.52-.5-5.27-1.48-8.36-2.18-10.93-2.41-13-3-18.35-5.6S83.7,354.67,81.9,355a5.57,5.57,0,0,1-2.62-.5,29.23,29.23,0,0,0-5-1.33A14.71,14.71,0,0,1,66.56,350a5.83,5.83,0,0,0-3.24-1.32c-2,0-2.5.27-3.79,2.14l-1.13,1.63-3.52.24c-5.23.31-7,1.44-8.2,5.05-.46,1.33-.39,1.6.51,3.23a8.73,8.73,0,0,1,1,2.42,9.17,9.17,0,0,1-1.92,2.76,16,16,0,0,0-2.14,3c-.24.74-1.72,1.95-8.32,6.73A15.63,15.63,0,0,0,33,378.25,6.57,6.57,0,0,0,33.8,380c1.13,1.9.74,2.95-1.91,5-3.56,2.76-4.45,3.89-4.65,5.87-.19,1.71-.55,2.1-10.5,12.18-5.66,5.72-10.31,10.54-10.31,10.74a24.43,24.43,0,0,0,.63,2.72A15.42,15.42,0,0,0,10.18,423c1,1.24,1.05,1.28.43,2.57a10.66,10.66,0,0,1-2.81,2.91c-2.31,1.72-2.66,2.61-1.52,4.2s.42,3.31-3.24,7.12c-2,2.11-3.25,3.62-3,3.86s4.64,1.05,9.92,1.94l9.52,1.6,2,1.86a50.54,50.54,0,0,0,5.27,4.13c5.82,4.08,8.44,7.31,9.22,11.59.58,3.23,3.43,3.58,13.62,1.67,9.26-1.79,14.72-2.1,21.05-1.24,3.55.47,4.84.78,5.5,1.4,1.09,1,1.84,1,3.2-.16.82-.66,1.76-.93,3.87-1.12s4.25-.78,8.94-2.61a94.89,94.89,0,0,1,9.52-3.19,30.31,30.31,0,0,0,4.65-1.4c1.21-.59,1.25-.66,1-2.22l-.24-1.63,2.69-1.68c1.45-.93,4.85-2.84,7.5-4.2,4.14-2.18,4.88-2.72,5.39-3.85a11,11,0,0,0,.12-7.9c-1.29-4.28-1.18-6.88.43-9.57s5.62-6.49,11.59-11c2.62-1.94,5.86-4.59,7.18-5.83,3.13-2.88,4.22-3.43,7.93-3.89,2.62-.31,3.94-.82,9.72-3.62l6.68-3.23h3.9a20.09,20.09,0,0,0,4.37-.31,4.79,4.79,0,0,0,1-2.14c.51-1.67.66-1.83,2-2.06,1.8-.31,2.54-1.21,2.54-3.12,0-1.05-.2-1.47-.71-1.63-.85-.19-1.25-1.75-1.25-5a11.88,11.88,0,0,1,5.94-10.43l1.68-.89,4.49,2c7,3.15,7,3.11,9.6,2.49,1.25-.27,2.54-.54,2.77-.54a10.32,10.32,0,0,1,2.7,2,18.29,18.29,0,0,0,3.51,2.53c1.76.74,8,.74,9.45,0a72.19,72.19,0,0,0,6.68-6.46c5-5.25,5.73-5.87,6.67-5.72,1.33.28,4.3-.93,9-3.69,2-1.17,4.45-2.53,5.35-3l1.6-.85,2.15,1a26.21,26.21,0,0,0,4,1.44c1.87.46,2,.58,5,5,3.55,5.25,4.14,6.73,4.45,11.16.39,5.25,1.91,7,12.61,14.08a47.92,47.92,0,0,1,9.72,7.86c4.8,5,6.33,5.92,9.8,5.84,2.3,0,2.89.12,4.41,1.09s2,1.63,3.2,4.08c1.33,2.77,1.56,3,3.44,3.89a24.27,24.27,0,0,0,5.15,1.48l3.13.51.11,1.36c.12,1.91,1.33,5.87,1.8,6,.23.08,1.44.31,2.65.55a7.58,7.58,0,0,1,4,2.06c2.88,2.49,4.29,5.4,6.67,13.85,1.17,4.08,1.21,4-1.76,5.37-1.24.54-1.44.89-1.91,2.84a37,37,0,0,1-1.52,4.66c-.94,2.42-1,2.49-.27,3,1.6,1.17,3.94.47,5.93-1.79.94-1,2.73-5.29,3.83-9,.7-2.41,1.79-3.61,4.64-5.05s3.05-1.68,2.77-4.75c-.35-4.16-.46-4.51-1.52-4.51-.7,0-3.86-1.79-6.21-3.54-.74-.55,2.78-8.09,5.08-10.82l1.13-1.28,2.46.62a26.94,26.94,0,0,1,4.88,1.91c2.27,1.16,6.68,5.05,7.61,6.69.43.78.43.78,1,0,.94-1.21,1.13-3.78.39-5.6-1.37-3.35-3.71-4.87-16.59-10.78-6.56-3-13.67-6.85-13.67-7.35a10.33,10.33,0,0,1,1.76-2.57,16.31,16.31,0,0,0,1.76-2.37c0-.63-3.48-1.13-7.69-1.13-3.67,0-5.16-.16-6.95-.78-7.11-2.45-11.6-8-12.85-15.84-.9-5.48-1.91-7-8.24-11.71a61.53,61.53,0,0,1-5-4.16c-2.31-2.45-2.74-5-1.37-8.28.78-1.91.82-2.07.2-3.58-.86-2.14-.82-5.53.07-6.31.36-.35,3-1.94,5.82-3.58l5.15-2.91,1.76.74a11,11,0,0,0,2.73.85c.55,0,1,.2,1,.31a24.28,24.28,0,0,1-1.29,2.53l-1.25,2.34,1.09,2.14a20,20,0,0,1,1.45,3.77c.31,1.17.59,1.59,1,1.44.78-.31,2.92-3.62,2.92-4.51a4,4,0,0,1,1.21-2l1.25-1.2,1,1.32a20.94,20.94,0,0,0,4.14,4c1.13.94,1.17,1.06,1.17,4.4a15.24,15.24,0,0,0,.39,4.09,13.88,13.88,0,0,0,2.22,2,5,5,0,0,1,2.07,2.57c.32,1.44,2.07,2.91,5,4.2,2,.82,2.3,1.13,2.7,2.45l.46,1.48H332c4.25,0,7.57,1.55,12.49,5.91,2.11,1.87,3.2,2.57,4.61,2.92,3,.66,8.94,4.08,11.75,6.73,1.41,1.32,1.56,1.32,4.49.58.9-.19,1-.11,1,.78a1.08,1.08,0,0,0,.93,1.25c.9.19.94.31.74,3.19s-.11,3.22,1.61,7.62l1.83,4.59-1.37,2.61-1.32,2.6.66,1.95a18.69,18.69,0,0,0,6.21,8.05c4.14,3.39,5,4.52,5.31,6.58a3.89,3.89,0,0,0,1.48,2.84c1.95,1.63,4.18,2.57,7.65,3.31l3.28.62-1.05.7a5.15,5.15,0,0,0-1.6,2,2.14,2.14,0,0,0,0,2.49,8.46,8.46,0,0,0,4.45,3.46c1.83.59,7.53.55,13.12-.15,6.2-.78,8.78-.78,8.78,0a4,4,0,0,1-2.38,3.27c-1.76.62-3.28.54-7.85-.35-5.19-1-9.06-1-10.85,0a7,7,0,0,0-3.13,5.87c0,2.76.94,3.66,4.92,4.86,2.15.67,3.44,1.29,3.67,1.79a23.46,23.46,0,0,1,.59,5.49c.19,4.12.31,4.86,1,5.6a5.24,5.24,0,0,0,4.1,1.64c1.33-.16,2.89-2.22,2.89-3.86,0-.62.12-1.12.31-1.12a26.91,26.91,0,0,1,3,3.69,23.86,23.86,0,0,0,3,3.7c.62,0,1.44-1.75,1.68-3.66a6.72,6.72,0,0,1,.43-2.1,13,13,0,0,1,2.89,2.37c1.67,1.64,3,2.61,3.55,2.61.86,0,.86-.12.7-3.07-.19-3.66-1.09-5.3-4-7.43-3.63-2.69-3.4-2.34-3.12-4.52l.27-2,3.63,1.75c5.19,2.49,8,2.41,8-.31,0-1.36-1.17-2.18-4.95-3.62l-2.85-1.09v-5.8l1.09.59a18.41,18.41,0,0,0,3,1.05,11.79,11.79,0,0,1,4.21,2.37c2.77,2.22,3.91,2.61,5.31,1.83,1.64-.93,1.45-1.71-1.09-4.36a10.56,10.56,0,0,1-2.38-3.11c0-1.24-3.09-3.62-7.85-6.15-5.78-3-8.28-5.25-10.07-9-1.37-2.92-1.92-4.94-1.33-4.94a27.44,27.44,0,0,1,3.24,1c3.44,1.17,4.14,1.21,4.65.23s-.59-2.37-5-5a32.12,32.12,0,0,1-5.47-4.12c-1.83-2-1.91-2.57-1.25-7.43.55-3.77.7-4.09,1.76-4.09s2.65,1.87,5.5,7.12c3.17,5.88,5.51,7.75,6.95,5.65.78-1.13.78-3.19,0-3.82-1-.78-2.22-2.72-1.83-2.72a14.89,14.89,0,0,1,3,2.33c2.7,2.42,3.48,2.73,4.73,1.79.82-.58,1-.27-3.52-5.52-2.1-2.49-.82-2.45,3.36.12,2.85,1.75,3.63,2.06,3.91,1.63.82-1.32.19-2.65-2.5-5.14-1.25-1.12-1.52-1.51-.74-1,1.75,1.25,2.38.74,3.51-2.6a13.43,13.43,0,0,1,1.72-3.54c.9-1,5-2.45,6.63-2.45a30.33,30.33,0,0,0,4.34-.82,16.49,16.49,0,0,1,6.28-.62,12.5,12.5,0,0,0,4-.2c.5-.23,1.05-.35,1.17-.23a13.18,13.18,0,0,1-1.17,3.42c-1.37,3.07-1.72,4.67-1.1,4.67.78,0,7.42-4.44,8.79-5.87,1.17-1.21,1.48-1.79,1.36-2.69s.16-1.32,2-2.53c3.52-2.22,5.24-2.88,11.17-4.51,6.68-1.79,7.61-2.22,8.24-3.85l.47-1.21-4.57-2.18c-4.73-2.25-6.37-3.5-13.31-10.11l-3-2.84,1.29-2.34c1.17-2.18,1.28-2.68,1.4-6.34a38.43,38.43,0,0,1,1.21-8.32l1.1-4.36-.82-6.34c-.47-3.78-.67-6.42-.43-6.58s2.18-2,4.45-4.2l4.06-4-.55-1.24c-2-4.55-3.32-7.74-3.24-7.82a8.92,8.92,0,0,1,2.19.31c1.28.27,2.14.27,2.38,0a19,19,0,0,0,.93-3.89c1.06-6.38,3.6-10.35,7.89-12.29,1.6-.74,2.62-.9,5.9-.9h4l.23-9c.12-4.94.35-14.27.47-20.73l.24-11.83-1,.66c-1.44.94-5.43.62-10.77-.89-7.46-2.07-8.95-2.22-12.07-1.29-3.4,1-3.55,1-5.85-.15a22.85,22.85,0,0,0-3.64-1.36l-1.75-.47.39-2.14c.35-2.06.35-2.14-.86-3.39a9.58,9.58,0,0,1-2-3.85c-.74-2.49-1.41-3.3-4.26-5.33-.7-.5-.86-1.13-1.05-4.59l-.24-4,2.5,1.63c1.37.89,2.66,1.75,2.89,2,.67.63,1.64.39,2.31-.62a4.14,4.14,0,0,1,1.64-1.36c2.06-.78.66-5-2.5-7.47-1-.82-2.93-2.26-4.22-3.19a17.63,17.63,0,0,1-3.51-3.19l-1.14-1.48.12-5.91.12-5.92-1.21-1.36c-1.45-1.67-3.2-2.68-8.47-4.9a24.42,24.42,0,0,1-5.7-3.19c-2-1.71-10.54-11.09-11.91-13l-.9-1.25.82-2.49c2.85-8.44.55-11.55-9.41-12.72a16.49,16.49,0,0,1-4.57-1.21l-1.68-.85,2.31-1.83c2.5-2,4-3.81,3.75-4.51a4.72,4.72,0,0,0-1.41-1.21c-.66-.43-1.64-1.05-2.15-1.36-1.13-.74-1.13-1.36,0-2.45a4.67,4.67,0,0,0,1.17-1.83c.16-.54.55-1.63.9-2.45.63-1.4.59-1.52-.12-2.22s-4.8-1.63-6.4-1.52C409.42,147.23,407.82,147.43,406.14,147.58Z" transform="translate(0 -15)"/><path class="cls-1" d="M161.82,159.41a7.62,7.62,0,0,0-2.77,1.63,10.45,10.45,0,0,0-2.31,5.26c0,.77.12.81,2.54.58,2.77-.27,5.7-1.36,7.11-2.68a5.13,5.13,0,0,0,1.13-4.4c-.24-.86-.43-1-2.11-.93A16.06,16.06,0,0,0,161.82,159.41Z" transform="translate(0 -15)"/><path class="cls-1" d="M174.12,163c-2,.23-4.42,2.06-9.8,7.35l-4,3.93L159.05,173c-1.68-1.71-3.44-2.3-5.24-1.71-.74.23-1.36.58-1.36.77a21.65,21.65,0,0,0,1.6,3.27,9.89,9.89,0,0,0,2.93,3.74,8.89,8.89,0,0,1,1.32.93s-1.64.93-3.67,1.95c-4.33,2.17-7.06,4.63-7.69,6.92s-.31,2.65,2.11,2.65c3.75,0,5.74.42,5.74,1.2a30.19,30.19,0,0,1-3,5.29c-1.67,2.53-3.16,4.79-3.31,5.06s0,.35,1,0c4.1-1.32,5.78-1.63,6.21-1.21.62.63-.47,2.42-2.34,3.82-1.64,1.2-2,2-1.1,3,1.57,1.91,3.71,2.3,7.89,1.32,3.4-.81,4.69-.85,5.43-.27,1.17,1,.62,3.19-1.45,5.95l-.82,1.09.86,2.42c1.49,4.2,1.13,5.44-2.42,8.79-2.58,2.45-2.77,2.45-7.81,0-1.91-.94-3.47-1.44-3.86-1.29-.82.31-.86,2.18-.12,4.36l.59,1.6-1.64.11c-2.42.16-2.38,1.17.07,2.69,2.19,1.32,2.39,1.86,1.21,3.73s-3.24,3-7.8,4.4a31.68,31.68,0,0,0-4.34,1.48c-.58.66-2,4.78-1.79,5.25s1.68.58,6.13.78l5.93.23,1.06,1.24c1,1.17,1.21,1.25,3.66,1.29a8.5,8.5,0,0,1,2.62.27c0,.43-2.62,2.61-3.86,3.23-1,.54-1.41.51-4.57-.35a15.4,15.4,0,0,0-4.1-.78c-.7.24-3.67,3.27-4.65,4.79-.47.66-2.5,1.51-8.9,3.62-8.28,2.76-8.31,2.76-7.61,3.54,1.87,2.1,5.85,2.41,12.53.89a42.32,42.32,0,0,1,5.54-1,1.49,1.49,0,0,1,1.64,1c.24.55.59,1,.78,1a12.09,12.09,0,0,0,2.23-1.36c3.83-2.76,5.74-3,8.28-1.13,1.68,1.21,2.85,1.17,7.38-.23a39.43,39.43,0,0,1,4-1.17,6.54,6.54,0,0,1,1.48,1.75c1.64,2.38,3.63,3.85,4.8,3.54s1.84-1.71,1.84-3.58c0-1.12.12-1.32.7-1.16a24.32,24.32,0,0,0,11.95.43c3.71-.78,8.82-3.7,8.82-5.06,0-.82-1.36-1.71-3.71-2.53a11.59,11.59,0,0,1-2.65-1.13c-.2-.19.51-.93,1.56-1.71a21.34,21.34,0,0,0,2.62-2.18,2.52,2.52,0,0,1,1.56-.82c2.07,0,7.69-3.5,9.6-5.95.74-.93.82-1.21.39-2.22a9.21,9.21,0,0,0-5-4.24,30.27,30.27,0,0,0-5.66-.43c-2.46,0-4.21-.15-4.21-.38s.89-2.61,2-5.33c3.47-8.49,3.16-11.83-1.45-16l-2.54-2.34.24-1.71c.31-2.06-.08-2.45-2-1.83-1.37.47-2.93,0-2.93-.78a37.35,37.35,0,0,1,1.52-4c1.88-4.4,2.23-6.11,1.6-7.71a4.33,4.33,0,0,0-3.32-2.29,4.06,4.06,0,0,1-1.75-.78,12,12,0,0,0-2.11-1.17c-1-.35-1-.39-.47-1.75,1.05-2.49,2.85-4.59,8.59-10.23,5.43-5.33,6.48-6.73,5.93-8.05-.54-1.48-5.46-1.75-12.72-.78-2.27.31-4.26.58-4.49.58-.86,0,3.86-4.24,8.66-7.82,2.81-2.1,5.23-4,5.35-4.16a1.06,1.06,0,0,0-.15-.85c-.28-.47-1.6-.59-6.52-.63C178.45,162.83,175,162.91,174.12,163Z" transform="translate(0 -15)"/><path class="cls-1" d="M132.22,199.52c-2.57.66-3.94,1.36-5.11,2.65a3,3,0,0,1-2.19,1c-1.56,0-2.89,1.24-2.18,2.1a3.36,3.36,0,0,0,1.79.78c1.17.23,1.37.42,1.37,1.36s-.27,1.2-1.6,1.79-1.72.62-2.23.27c-2.77-2-7.92-3-10.77-2-1.84.58-4.14,2.56-4.14,3.5a1.74,1.74,0,0,0,.74,1.24,4.65,4.65,0,0,1,1.25,1.6c.62,1.4,0,2-2.5,2.61-3.2.7-3.4.81-3.4,1.32,0,.81,1.53,2.53,2.82,3.19a17.66,17.66,0,0,0,4,1.09l2.77.46-2.19.74c-2.61.82-3.94.59-4.56-.81s-1.33-1-2.11,1.16a10.47,10.47,0,0,1-.86,2.07,4.81,4.81,0,0,1-2-.43,11.72,11.72,0,0,0-2.58-.62,2.8,2.8,0,0,0-2.26,2.64c0,.86.27,1.25,1.25,1.67l1.25.59-2.42.54a7.82,7.82,0,0,0-2.85,1c-.47.55,0,1.64,1,2.49s.78,1.25-.78,3a4.64,4.64,0,0,0-1.25,2.25c.08.39,1.72,1.33,4,2.38l3.91,1.71,4.68-.43a156.93,156.93,0,0,0,16.79-2.22c5.7-1.28,11.32-4.08,13.86-7s4.53-8.36,4.22-11.75l-.2-1.83,3.75-2.53,3.75-2.53,0-4.47c0-3.42-.08-4.86-.63-6.22-.9-2.26-1.52-2.65-3.32-2-.93.31-1.56.35-1.87.12a8.66,8.66,0,0,0-2.38-.9c-1.64-.39-1.84-.54-1.68-1.36s0-.93-1.45-.89A17.51,17.51,0,0,0,132.22,199.52Z" transform="translate(0 -15)"/><path class="cls-1" d="M246.34,385.87c-6,4.87-6.67,5.64-7.45,8.79a27.45,27.45,0,0,0-.75,6c0,2.72.16,3.34,1,4.66,1.25,1.87,4.64,3.86,6,3.51S249,405,250.29,402c2-4.9,2.65-11.63,1.56-15.33-.55-1.71-1.6-3.38-2.15-3.31A32.44,32.44,0,0,0,246.34,385.87Z" transform="translate(0 -15)"/><path class="cls-1" d="M243.41,412.68a53.29,53.29,0,0,1-5.5,3.5c-5,2.8-5.19,3.27-5.11,11a35,35,0,0,1-.94,9.92c-1.1,4.78-1.41,8.91-.67,9.65.36.35.94.31,2.54,0a8.63,8.63,0,0,0,4.3-2.61c2.26-2.18,3.12-2.41,4.21-1.09.28.31.63.59.82.59.43,0,1.8-2.77,3.44-6.89l1.29-3.19-1.06-2.72c-1.29-3.19-1.13-4.32.74-5.45,1.61-1,2-2.8,1.37-6.85-.39-2.95-2.15-7-3.08-7.08A5.37,5.37,0,0,0,243.41,412.68Z" transform="translate(0 -15)"/><path class="cls-1" d="M314.74,457.65c-1.21.16-4.76,1.05-7.88,2-6.95,2-9.88,2-13.59.19L291,458.7l-2.62.78c-1.44.43-3.63,1-4.84,1.24-3.28.67-4.65,1.72-5.58,4.36s-.67,3.27,2.07,5.49,7.84,4.67,17.33,8.28c4.8,1.83,10.19,4,12,4.75l3.28,1.4.93-1.17c2-2.45,2.27-3.23,2.07-7.16-.35-8.28-.27-10.23.63-11.47a10.75,10.75,0,0,0,1.79-5.84C318.18,457.14,318.18,457.14,314.74,457.65Z" transform="translate(0 -15)"/></svg>